<svg xmlns="http://www.w3.org/2000/svg" xmlns:xlink="http://www.w3.org/1999/xlink" viewBox="0 0 1920 1080"><defs><style>.cls-1,.cls-40,.cls-59,.cls-60,.cls-62{fill:none;}.cls-2{fill:#23272b;}.cls-3,.cls-39,.cls-46,.cls-48{fill:#fff;}.cls-29,.cls-3,.cls-32,.cls-33,.cls-34,.cls-35,.cls-36,.cls-38,.cls-41,.cls-42,.cls-43,.cls-44{fill-rule:evenodd;}.cls-4{clip-path:url(#clip-path);}.cls-5{fill:#f03c2e;}.cls-6{fill:#e2e2e2;}.cls-7{fill:url(#linear-gradient);}.cls-8,.cls-9{fill:#be202e;}.cls-9{opacity:0.35;isolation:isolate;}.cls-10{fill:url(#linear-gradient-2);}.cls-11{fill:url(#linear-gradient-3);}.cls-12{fill:url(#linear-gradient-4);}.cls-13{fill:url(#linear-gradient-5);}.cls-14{fill:url(#linear-gradient-6);}.cls-15{fill:url(#linear-gradient-7);}.cls-16{fill:url(#linear-gradient-8);}.cls-17{fill:url(#linear-gradient-9);}.cls-18{fill:url(#linear-gradient-10);}.cls-19{fill:url(#linear-gradient-11);}.cls-20{fill:url(#linear-gradient-12);}.cls-21{fill:url(#linear-gradient-13);}.cls-22{fill:url(#linear-gradient-14);}.cls-23{fill:url(#linear-gradient-15);}.cls-24{fill:url(#linear-gradient-16);}.cls-25{fill:url(#linear-gradient-17);}.cls-26{fill:url(#linear-gradient-18);}.cls-27{fill:url(#linear-gradient-19);}.cls-28{fill:url(#linear-gradient-20);}.cls-29{fill:#d33833;}.cls-30,.cls-41{fill:#ef3d3a;}.cls-31,.cls-42{fill:#231f20;}.cls-32{fill:#f0d6b7;}.cls-33{fill:#335061;}.cls-34{fill:#6d6b6d;}.cls-35{fill:#dcd9d8;}.cls-36,.cls-37{fill:#f7e4cd;}.cls-38{fill:#49728b;}.cls-40{stroke:#d33833;stroke-miterlimit:5;stroke-width:2.5px;}.cls-43{fill:#81b0c4;}.cls-44{fill:#1d1919;}.cls-45{fill:#326ce5;}.cls-46,.cls-59{stroke:#fff;}.cls-46{stroke-width:0.25px;}.cls-47{fill:#1d63ed;}.cls-48{font-size:30px;font-family:Montserrat-Bold, Montserrat;font-weight:700;}.cls-49{letter-spacing:-0.02em;}.cls-50{letter-spacing:-0.01em;}.cls-51{letter-spacing:-0.01em;}.cls-52{letter-spacing:-0.01em;}.cls-53{letter-spacing:-0.03em;}.cls-54{letter-spacing:-0.01em;}.cls-55{letter-spacing:0em;}.cls-56{letter-spacing:-0.01em;}.cls-57{letter-spacing:-0.03em;}.cls-58{letter-spacing:-0.03em;}.cls-59,.cls-60,.cls-62{stroke-linecap:round;stroke-linejoin:round;}.cls-59{stroke-width:5px;}.cls-60{stroke:#759bd3;stroke-width:6px;stroke-dasharray:5 15 5 15 5 15;}.cls-61{fill:#759bd3;}.cls-62{stroke:#1d63ed;stroke-width:10px;}</style><clipPath id="clip-path" transform="translate(-0.5 -0.5)"><rect class="cls-1" x="50.7" y="842.11" width="190.94" height="190.81"/></clipPath><linearGradient id="linear-gradient" x1="-17780.02" y1="5308.17" x2="-17566.25" y2="5558.14" gradientTransform="translate(-309.93 -1067.29) rotate(-99.46) scale(0.12)" gradientUnits="userSpaceOnUse"><stop offset="0" stop-color="#f69923"/><stop offset="0.31" stop-color="#f79a23"/><stop offset="0.84" stop-color="#e97826"/></linearGradient><linearGradient id="linear-gradient-2" x1="-19342.8" y1="6096.75" x2="-17807.86" y2="6096.75" gradientTransform="translate(-309.93 -1067.29) rotate(-99.46) scale(0.12)" gradientUnits="userSpaceOnUse"><stop offset="0.32" stop-color="#9e2064"/><stop offset="0.63" stop-color="#c92037"/><stop offset="0.75" stop-color="#cd2335"/><stop offset="1" stop-color="#e97826"/></linearGradient><linearGradient id="linear-gradient-3" x1="-19158.43" y1="6264.63" x2="-18242.79" y2="6264.63" gradientTransform="translate(-309.93 -1067.29) rotate(-99.46) scale(0.12)" gradientUnits="userSpaceOnUse"><stop offset="0" stop-color="#282662"/><stop offset="0.1" stop-color="#662e8d"/><stop offset="0.79" stop-color="#9f2064"/><stop offset="0.95" stop-color="#cd2032"/></linearGradient><linearGradient id="linear-gradient-4" x1="-19256.53" y1="6099.04" x2="-17721.8" y2="6099.04" xlink:href="#linear-gradient-2"/><linearGradient id="linear-gradient-5" x1="-19144.63" y1="6132.8" x2="-18338.21" y2="6132.8" xlink:href="#linear-gradient-3"/><linearGradient id="linear-gradient-6" x1="-19257.72" y1="6244.62" x2="-17721.43" y2="6244.62" xlink:href="#linear-gradient-2"/><linearGradient id="linear-gradient-7" x1="-19354.23" y1="6229.88" x2="-17817.27" y2="6229.88" xlink:href="#linear-gradient-2"/><linearGradient id="linear-gradient-8" x1="-19262.48" y1="6291.62" x2="-17721.63" y2="6291.62" xlink:href="#linear-gradient-2"/><linearGradient id="linear-gradient-9" x1="-19263.01" y1="6283.96" x2="-17721.94" y2="6283.96" xlink:href="#linear-gradient-2"/><linearGradient id="linear-gradient-10" x1="-17551.03" y1="6282.94" x2="-17551.03" y2="6282.94" xlink:href="#linear-gradient-2"/><linearGradient id="linear-gradient-11" x1="-10247.53" y1="10730.11" x2="-10035.6" y2="10977.93" gradientTransform="translate(509.21 -1029.07) rotate(-57.53) scale(0.13)" xlink:href="#linear-gradient"/><linearGradient id="linear-gradient-12" x1="-11598.04" y1="10159.22" x2="-10067.78" y2="10159.22" gradientTransform="translate(509.21 -1029.07) rotate(-57.53) scale(0.13)" xlink:href="#linear-gradient-2"/><linearGradient id="linear-gradient-13" x1="-11414.88" y1="10310.15" x2="-10505.69" y2="10310.15" gradientTransform="translate(509.21 -1029.07) rotate(-57.53) scale(0.13)" xlink:href="#linear-gradient-3"/><linearGradient id="linear-gradient-14" x1="-11511.66" y1="10139.73" x2="-9980.71" y2="10139.73" gradientTransform="translate(509.21 -1029.07) rotate(-57.53) scale(0.13)" xlink:href="#linear-gradient-2"/><linearGradient id="linear-gradient-15" x1="-11399.29" y1="10157.91" x2="-10594.39" y2="10157.91" gradientTransform="translate(509.21 -1029.07) rotate(-57.53) scale(0.13)" xlink:href="#linear-gradient-3"/><linearGradient id="linear-gradient-16" x1="-11512.34" y1="10303.39" x2="-9985.76" y2="10303.39" gradientTransform="translate(509.21 -1029.07) rotate(-57.53) scale(0.13)" xlink:href="#linear-gradient-2"/><linearGradient id="linear-gradient-17" x1="-11605.27" y1="10298.79" x2="-10080.7" y2="10298.79" gradientTransform="translate(509.21 -1029.07) rotate(-57.53) scale(0.13)" xlink:href="#linear-gradient-2"/><linearGradient id="linear-gradient-18" x1="-11275.67" y1="10355.6" x2="-11275.67" y2="10355.6" gradientTransform="translate(509.21 -1029.07) rotate(-57.53) scale(0.13)" xlink:href="#linear-gradient-2"/><linearGradient id="linear-gradient-19" x1="-11196.97" y1="10345.5" x2="-11196.97" y2="10345.5" gradientTransform="translate(509.21 -1029.07) rotate(-57.53) scale(0.13)" xlink:href="#linear-gradient-2"/><linearGradient id="linear-gradient-20" x1="-11197.04" y1="10345.8" x2="-11197.04" y2="10345.8" gradientTransform="translate(509.21 -1029.07) rotate(-57.53) scale(0.13)" xlink:href="#linear-gradient-2"/></defs><title>background</title><g id="Layer_4" data-name="Layer 4"><rect class="cls-2" width="1920" height="1080"/></g><g id="Layer_1" data-name="Layer 1"><path class="cls-3" d="M125.81,26C72.28,26,29,70.3,29,125.1c0,43.8,27.73,80.88,66.2,94,4.81,1,6.57-2.13,6.57-4.75,0-2.3-.16-10.18-.16-18.38-26.93,5.91-32.54-11.81-32.54-11.81-4.33-11.49-10.74-14.44-10.74-14.44-8.81-6.07.64-6.07.64-6.07,9.78.66,14.91,10.17,14.91,10.17,8.65,15.1,22.6,10.83,28.21,8.21.8-6.4,3.36-10.83,6.09-13.29-21.48-2.3-44.08-10.83-44.08-48.9A39.15,39.15,0,0,1,74,93.27c-1-2.46-4.33-12.64,1-26.25,0,0,8.18-2.63,26.61,10.17a90.91,90.91,0,0,1,48.4,0C168.44,64.39,176.62,67,176.62,67c5.29,13.61,1.92,23.79,1,26.25a38.4,38.4,0,0,1,9.94,26.57c0,38.07-22.6,46.43-44.24,48.9,3.53,3.11,6.57,9,6.57,18.37,0,13.29-.16,23.95-.16,27.23,0,2.63,1.77,5.75,6.57,4.76,38.47-13.12,66.2-50.2,66.2-94C222.62,70.3,179.18,26,125.81,26Z" transform="translate(-0.5 -0.5)"/><g class="cls-4"><path class="cls-5" d="M238,929l-83.37-83.31a12.3,12.3,0,0,0-17.39,0h0L120,863l22,21.94a14.6,14.6,0,0,1,18.49,18.61l21.17,21.15a14.62,14.62,0,0,1,15.12,24.15h0A14.63,14.63,0,0,1,172.83,933l-19.74-19.72v51.91a14.61,14.61,0,0,1,6.63,19.58,14.45,14.45,0,0,1-2.77,3.86,14.64,14.64,0,0,1-20.69,0h0a14.62,14.62,0,0,1,0-20.68h0a14.72,14.72,0,0,1,4.79-3.19V912.32a14.63,14.63,0,0,1-7.94-19.17h0l-21.65-21.64L54.29,928.63a12.31,12.31,0,0,0,0,17.38l83.38,83.31a12.3,12.3,0,0,0,17.39,0l83-82.92A12.29,12.29,0,0,0,238,929" transform="translate(-0.5 -0.5)"/></g><ellipse class="cls-6" cx="1196.87" cy="136.15" rx="77.5" ry="84.13" transform="translate(997.51 1323.72) rotate(-86.99)"/><path d="M1188.81,124.59l39.63,31.75L1202.21,90.5ZM1200.51,26C1144.44,26,1099,72.16,1099,129.12s45.42,103.12,101.49,103.12S1302,186.09,1302,129.12,1256.57,26,1200.51,26Zm49,148.71a7.26,7.26,0,0,1-7.4,7.13c-2,0-3.52-.77-5.62-2.52l-52.35-43-17.59,44.71h-15.2l44.37-108.32a6.68,6.68,0,0,1,6.47-4.35,6.39,6.39,0,0,1,6.27,4.35l40.38,98.77a8.36,8.36,0,0,1,.67,3v.2Z" transform="translate(-0.5 -0.5)"/><g id="g8927"><g id="g7248"><path id="path7258" class="cls-7" d="M764.73,844.77a67.48,67.48,0,0,0-2.8,18.51l9.78,4.81a127.36,127.36,0,0,1,.78-17.79v-.63q0,.32,0,.63a110.5,110.5,0,0,0,0,17.45A191.89,191.89,0,0,0,787,853.86C782.1,843.75,776.05,842,776.05,842S767.34,838.51,764.73,844.77Z" transform="translate(-0.5 -0.5)"/><path id="path7260" class="cls-1" d="M790.17,894.82h0l-.53.51h0Z" transform="translate(-0.5 -0.5)"/><path id="path7262" class="cls-1" d="M796.16,912c-.28.34-.58.65-.89,1C795.58,912.66,795.88,912.35,796.16,912Z" transform="translate(-0.5 -0.5)"/><path id="path7264" class="cls-1" d="M790.53,964.84v-.46c-.84-3.1-1.65-6.12-2.43-9.08s-1.69-6.54-2.47-9.68-1.57-6.54-2.3-9.64-1.48-6.44-2.13-9.51c-.53-2.51-1-4.93-1.51-7.29-.17-.8-.31-1.56-.45-2.33-.31-1.54-.59-3.05-.87-4.5l-.75-4a5.6,5.6,0,0,0-.23-1.28v-.23l-.44.42-1-.48v.31c.33,2,.67,4,1.06,6,.2,1.14.42,2.31.62,3.5.61,3.25,1.23,6.46,1.93,9.71s1.4,6.54,2.13,9.76,1.46,6.38,2.21,9.54,1.54,6.26,2.33,9.36,1.62,6.43,2.49,9.57l.59,2.13c.67,2.53,1.34,5,2,7.46l1.57.79.53-.48a.34.34,0,0,0,0-.2C792.27,971,791.37,967.88,790.53,964.84Z" transform="translate(-0.5 -0.5)"/><path id="path7266" class="cls-1" d="M795,913.2" transform="translate(-0.5 -0.5)"/><path id="path7268" class="cls-8" d="M798.63,921.09c-.45.51-.93,1-1.4,1.48h0a8.86,8.86,0,0,0,.73-.77A7.5,7.5,0,0,0,798.63,921.09Z" transform="translate(-0.5 -0.5)"/><path id="path7270" class="cls-9" d="M798.63,921.09c-.45.51-.93,1-1.4,1.48h0a8.86,8.86,0,0,0,.73-.77A7.5,7.5,0,0,0,798.63,921.09Z" transform="translate(-0.5 -0.5)"/><path id="path7272" class="cls-8" d="M795,913.18h0l.23-.2c.31-.32.61-.63.89-1C795.83,912.41,795.44,912.78,795,913.18Z" transform="translate(-0.5 -0.5)"/><path id="path7274" class="cls-9" d="M795,913.18h0l.23-.2c.31-.32.61-.63.89-1C795.83,912.41,795.44,912.78,795,913.18Z" transform="translate(-0.5 -0.5)"/><path id="path7286" class="cls-10" d="M774.34,897.41c-.48-3.31-.87-6.55-1.26-9.77s-.64-6.57-.9-9.79v-.57c-.19-3.13-.36-6.2-.42-9.22L762,863.28v1.88c0,2.39-.17,4.89-.2,7.54s0,6.12,0,9.39.2,6.15.36,9.34c.14,2.84.34,5.46.54,8.28a1.6,1.6,0,0,1,0,.31l13,6.72C775.29,903.61,774.82,900.51,774.34,897.41Z" transform="translate(-0.5 -0.5)"/><path id="path7298" class="cls-11" d="M793.64,975.85c.73,2.48,1.46,5,2.24,7.63h0s.2.71.31,1.08c.53,1.74,1,3.31,2.13,6.86a12.78,12.78,0,0,1,7.48,1.83,10.64,10.64,0,0,0-7.11-4c8-5.41,13.25-12.38,12.52-20.72a13.24,13.24,0,0,0-.34-2.28,9.37,9.37,0,0,1-5.24,8h0a26.62,26.62,0,0,0,4.18-16.51,26,26,0,0,0-.54-4.33,21.16,21.16,0,0,1-12.13,17.08l-3.95,3.73Z" transform="translate(-0.5 -0.5)"/><path id="path7310" class="cls-12" d="M788.57,964.55c-.84-3.16-1.68-6.34-2.52-9.59s-1.54-6.2-2.3-9.36-1.51-6.35-2.24-9.51-1.43-6.52-2.1-9.79-1.32-6.46-1.93-9.68c-.23-1.17-.45-2.33-.65-3.5-.36-2-.7-4-1-6a1.93,1.93,0,0,0,0-.34l-13-6.72q0,.32,0,.63c.25,3,.5,6,.84,9.08s.73,6.18,1.2,9.34c.37,2.64.79,5.26,1.21,7.91a8.53,8.53,0,0,0,.3,1.59c.59,3.28,1.24,6.44,1.91,9.4s1.62,6.51,2.46,9.45c.56,1.9,1.13,3.75,1.69,5.52s1,2.85,1.54,4.41q1.85,5.16,4.09,10l13.08,6.75c-.7-2.45-1.35-5-2.07-7.46C788.94,966,788.77,965.27,788.57,964.55Z" transform="translate(-0.5 -0.5)"/><path id="path7322" class="cls-13" d="M778.23,967.83a105.94,105.94,0,0,0,6.06,11.38,2.77,2.77,0,0,0,.22.37,25.77,25.77,0,0,0-10-.77,36.45,36.45,0,0,1,16.11,9.54,16.73,16.73,0,0,1-7.62,3.87,16.56,16.56,0,0,0,8.4-.74,21.2,21.2,0,0,0-5.1,10.08,21.43,21.43,0,0,1,8.24-8.94c4,13.26,8.68,27.67,14,42.7a4.21,4.21,0,0,0,.61-3.79c-1-2.85-7.22-20.66-14.37-45-.19-.68-.39-1.37-.62-2.08a3.33,3.33,0,0,0-.16-.6c-.73-2.56-1.46-5.18-2.22-7.88-.16-.63-.36-1.2-.53-1.85h0l-13.14-6.75Z" transform="translate(-0.5 -0.5)"/><path id="path7334" class="cls-14" d="M777.28,907.06a6.93,6.93,0,0,0,.23,1.28c.25,1.31.47,2.64.75,4s.56,2.85.87,4.5c.14.77.28,1.53.45,2.33.48,2.36,1,4.78,1.51,7.29.65,3.07,1.37,6.23,2.13,9.51s1.49,6.34,2.3,9.64,1.6,6.35,2.46,9.68,1.6,6,2.44,9.08v.46c.84,3,1.74,6.2,2.63,9.39v.23l4-3.73-.3.17a38.93,38.93,0,0,0,9.63-21.69,53.22,53.22,0,0,0,0-12.1,82.31,82.31,0,0,0-1.9-10.33c-.79-3.19-1.74-6.57-2.8-10.16a20.39,20.39,0,0,1-3,4.44l-.7.77-.73.74h0a23.69,23.69,0,0,0,2.8-17.45,22.17,22.17,0,0,1-3.92,6.92c-.25.31-.56.62-.87.94l-.25.22h0a25.07,25.07,0,0,0,2.55-5.69,6.23,6.23,0,0,1,.28-1.19c.08-.4.25-1.23.34-1.83a5.83,5.83,0,0,0,0-1.19,19.37,19.37,0,0,0,0-2.85v-.91a2.93,2.93,0,0,0-.2-1.25c-.34-1.85-.67-3.5-1-4.9-.16-.71-.33-1.34-.5-1.9l-.22-.69c-.2-.65-.37-1.22-.56-1.71a17.76,17.76,0,0,0-.73-1.68h0a3.61,3.61,0,0,1-.28.8,26.11,26.11,0,0,1-4.46,6.49l3.84-3.39-3.64,3.39h0l-.53.57h0l-12.64,11.56A.24.24,0,0,1,777.28,907.06Z" transform="translate(-0.5 -0.5)"/><path id="path7346" class="cls-15" d="M772.46,867.83c.14,2.85.4,5.92.7,9.37a1.63,1.63,0,0,0,0,.54c.28,3,.65,6.26,1.1,9.82.39,3,.84,6.29,1.4,9.76.42,3,1,6.18,1.54,9.54l12.46-11.62a21,21,0,0,0,3.14-11.38v-3.11c-.19-3.24-.59-6.69-1.12-10a90,90,0,0,0-2-9.05,42,42,0,0,0-1.37-4.52c-.45-1.14-.9-2.17-1.37-3.16A195.36,195.36,0,0,1,772.46,867.83Z" transform="translate(-0.5 -0.5)"/><path id="path7348" class="cls-8" d="M798,921.83l-.72.77h0A8.74,8.74,0,0,1,798,921.83Z" transform="translate(-0.5 -0.5)"/><path id="path7350" class="cls-9" d="M798,921.83l-.72.77h0A8.74,8.74,0,0,1,798,921.83Z" transform="translate(-0.5 -0.5)"/><path id="path7362" class="cls-16" d="M798,921.83l-.72.77h0A8.74,8.74,0,0,1,798,921.83Z" transform="translate(-0.5 -0.5)"/><path id="path7364" class="cls-8" d="M795,913.2a.8.8,0,0,1,.23-.22A1.58,1.58,0,0,0,795,913.2Z" transform="translate(-0.5 -0.5)"/><path id="path7366" class="cls-9" d="M795,913.2a.8.8,0,0,1,.23-.22A1.58,1.58,0,0,0,795,913.2Z" transform="translate(-0.5 -0.5)"/><path id="path7378" class="cls-17" d="M795,913.2a.8.8,0,0,1,.23-.22A1.58,1.58,0,0,0,795,913.2Z" transform="translate(-0.5 -0.5)"/><path id="path7380" class="cls-8" d="M795,913.18" transform="translate(-0.5 -0.5)"/><path id="path7382" class="cls-9" d="M795,913.18" transform="translate(-0.5 -0.5)"/><path id="path7394" class="cls-18" d="M795,913.18" transform="translate(-0.5 -0.5)"/></g><g id="g4701"><path id="path4710" class="cls-19" d="M892.53,847.28A74.47,74.47,0,0,0,875.89,860L880,871.73A139,139,0,0,1,894.38,858l.56-.46a6.89,6.89,0,0,1-.56.46,125,125,0,0,0-13.58,14,212,212,0,0,0,22.41.49c4-12.07.47-18.36.47-18.36S899.51,844.35,892.53,847.28Z" transform="translate(-0.5 -0.5)"/><path id="path4712" class="cls-1" d="M873.88,908.08Z" transform="translate(-0.5 -0.5)"/><path id="path4714" class="cls-1" d="M865.25,926.75a11.85,11.85,0,0,1-1.46,0A11.85,11.85,0,0,0,865.25,926.75Z" transform="translate(-0.5 -0.5)"/><path id="path4716" class="cls-1" d="M819.42,964.72c0-.14.16-.31.28-.45l5.07-9.28c1.87-3.33,3.75-6.6,5.6-9.76s3.84-6.55,5.6-9.62,3.84-6.38,5.61-9.37l4.48-7.09,1.48-2.25,2.8-4.32,2.53-3.85.81-1.22.14-.2h-.7l-.39-1.19a3.55,3.55,0,0,1-.23.31c-1.29,1.85-2.58,3.76-3.84,5.69-.72,1.08-1.45,2.22-2.24,3.33-2,3.11-4,6.18-6,9.37s-4,6.4-5.94,9.56-3.78,6.32-5.6,9.48-3.67,6.26-5.61,9.39-3.69,6.52-5.46,9.74c-.42.71-.81,1.45-1.18,2.16-1.45,2.62-2.8,5.15-4.2,7.69l.65,1.9h.78a.34.34,0,0,0,0-.2C816,971.13,817.71,967.88,819.42,964.72Z" transform="translate(-0.5 -0.5)"/><path id="path4718" class="cls-1" d="M863.43,926.78" transform="translate(-0.5 -0.5)"/><path id="path4720" class="cls-8" d="M860.15,936.06h-2.3a7.75,7.75,0,0,0,1.18,0A7,7,0,0,0,860.15,936.06Z" transform="translate(-0.5 -0.5)"/><path id="path4722" class="cls-9" d="M860.15,936.06h-2.3a7.75,7.75,0,0,0,1.18,0A7,7,0,0,0,860.15,936.06Z" transform="translate(-0.5 -0.5)"/><path id="path4724" class="cls-8" d="M863.46,926.81h.33a11.85,11.85,0,0,0,1.46,0Z" transform="translate(-0.5 -0.5)"/><path id="path4726" class="cls-9" d="M863.46,926.81h.33a11.85,11.85,0,0,0,1.46,0Z" transform="translate(-0.5 -0.5)"/><path id="path4737" class="cls-20" d="M859.11,897.41c2.24-3,4.43-6,6.64-8.86s4.6-5.83,7-8.54l.39-.48c2.3-2.7,4.57-5.29,6.87-7.77L875.84,860c-.48.49-1,.94-1.54,1.43-1.94,1.85-3.95,3.81-6,5.94s-4.77,4.93-7.29,7.6-4.65,5.1-7,7.78-4,4.52-6.05,7.05l-.23.26,5.24,16C855,903.16,857.07,900.25,859.11,897.41Z" transform="translate(-0.5 -0.5)"/><path id="path4748" class="cls-21" d="M813.31,976.14c-1.37,2.56-2.8,5.21-4.15,7.94h0a12.29,12.29,0,0,0-.59,1.14c-1,1.82-1.76,3.47-3.67,7.2a15.45,15.45,0,0,1,4.63,7.54,12.58,12.58,0,0,0-2.66-8.93c10.67,2.1,20.36.71,26.27-6.58.51-.65,1-1.37,1.52-2.08-2.61,2.45-5.44,3.28-10.51,2.19h0a29.1,29.1,0,0,0,16.31-9.9c.95-1.17,1.93-2.45,2.94-3.9a23.4,23.4,0,0,1-23.17,4l-6.08-.23A16.56,16.56,0,0,0,813.31,976.14Z" transform="translate(-0.5 -0.5)"/><path id="path4759" class="cls-22" d="M818.07,962.9c1.77-3.19,3.62-6.43,5.6-9.7s3.59-6.27,5.47-9.43,3.75-6.31,5.6-9.45,3.92-6.4,5.94-9.59,4-6.26,6-9.36l2.22-3.33c1.26-1.88,2.57-3.79,3.86-5.7l.2-.31-5.27-15.88c0,.17-.28.37-.45.54-2.13,2.62-4.31,5.26-6.41,8s-4.26,5.69-6.33,8.54c-1.77,2.42-3.51,4.86-5.21,7.37l-1,1.51c-2.07,3.1-4,6.17-5.8,9.11s-3.78,6.54-5.41,9.59c-1,2-2,3.93-3,5.69s-1.48,3.22-2.21,4.81c-1.68,3.76-3.17,7.54-4.51,11.39l5.27,16c1.37-2.53,2.8-5.06,4.2-7.65Z" transform="translate(-0.5 -0.5)"/><path id="path4770" class="cls-23" d="M807.17,957.24a112.86,112.86,0,0,0-4,14,2.26,2.26,0,0,0,0,.52,30.58,30.58,0,0,0-7.46-8.74c3.51,7.26,6,14.23,5.61,20.72a19.1,19.1,0,0,1-9.36-3.05,18.76,18.76,0,0,0,7.31,6.27,23.27,23.27,0,0,0-12,4,23.68,23.68,0,0,1,13.62-.48c-7.23,13.86-14.66,29.26-22.22,45.54a4.48,4.48,0,0,0,3.45-2.53c1.34-2.85,10.33-22.46,23.64-47.85.39-.71.79-1.43,1.15-2.17l.34-.62c1.4-2.65,2.8-5.35,4.37-8.14.33-.63.67-1.26,1-1.88h0l-5.29-16.08A2.94,2.94,0,0,0,807.17,957.24Z" transform="translate(-0.5 -0.5)"/><path id="path4781" class="cls-24" d="M853.93,907.51l-.81,1.22c-.84,1.29-1.71,2.54-2.52,3.85l-2.8,4.32-1.49,2.25-4.48,7.09c-1.88,2.85-3.76,6.12-5.6,9.37s-3.76,6.31-5.61,9.62S827,951.63,825,955l-5.32,9.17c0,.14-.17.31-.28.45l-5.24,9.74a.61.61,0,0,0,0,.19l6.08.23-.37-.14A42.26,42.26,0,0,0,844.6,965a58.83,58.83,0,0,0,9.36-9.82,90.9,90.9,0,0,0,6.55-9.88c1.88-3.18,3.76-6.68,5.61-10.5a21.53,21.53,0,0,1-5.89,1.11h-2.32a26.16,26.16,0,0,0,15.83-11.56,23.61,23.61,0,0,1-8.41,2.4c-.48,0-1,0-1.45,0h-.4a27.93,27.93,0,0,0,6.36-2.4l1.15-.71,1.71-1.22,1-.85a16.33,16.33,0,0,0,2.21-2.34,3.81,3.81,0,0,0,.64-.8c.31-.39.59-.79.84-1.16,1.21-1.77,2.19-3.36,3-4.78.39-.72.76-1.34,1.07-2s.28-.45.39-.71.64-1.28.87-1.82.52-1.28.73-1.94h0a4.87,4.87,0,0,1-.87.4,28.21,28.21,0,0,1-8.66,1.65l5.6.2-5.6-.2h-.73L854,907.23C854,907.4,854,907.49,853.93,907.51Z" transform="translate(-0.5 -0.5)"/><path id="path4792" class="cls-25" d="M880.8,872.07c-2,2.34-4.32,5.07-6.76,8.09l-.39.48c-2.13,2.65-4.37,5.69-6.78,8.8s-4.23,5.69-6.52,9c-2,2.85-4,5.69-6.2,8.91l19.14.74a23.16,23.16,0,0,0,11.48-6.72c.76-.79,1.52-1.71,2.3-2.62a109,109,0,0,0,6.92-9,98.39,98.39,0,0,0,5.6-8.71c1-1.74,1.77-3.36,2.41-4.81a32.32,32.32,0,0,0,1.35-3.68A214.75,214.75,0,0,1,880.8,872.07Z" transform="translate(-0.5 -0.5)"/><path id="path4794" class="cls-8" d="M859,936.15Z" transform="translate(-0.5 -0.5)"/><path id="path4796" class="cls-9" d="M859,936.15Z" transform="translate(-0.5 -0.5)"/><path id="path4807" class="cls-26" d="M859,936.15Z" transform="translate(-0.5 -0.5)"/><path id="path4809" class="cls-8" d="M863.43,926.78Z" transform="translate(-0.5 -0.5)"/><path id="path4811" class="cls-9" d="M863.43,926.78Z" transform="translate(-0.5 -0.5)"/><path id="path4822" class="cls-27" d="M863.43,926.78Z" transform="translate(-0.5 -0.5)"/><path id="path4824" class="cls-8" d="M863.46,926.81" transform="translate(-0.5 -0.5)"/><path id="path4826" class="cls-9" d="M863.46,926.81" transform="translate(-0.5 -0.5)"/><path id="path4837" class="cls-28" d="M863.46,926.81" transform="translate(-0.5 -0.5)"/></g></g><g id="g10"><g id="g3393"><path id="path22" class="cls-29" d="M751.5,144.23c0,48.6-37.91,88-84.69,88s-84.68-39.41-84.68-88,37.91-88,84.68-88,84.69,39.41,84.69,88" transform="translate(-0.5 -0.5)"/><path id="path24" class="cls-30" d="M585.58,166s-6.13-91.78,77.1-94.4l-5.8-9.84L611.71,77.19,598.8,92.27l-11.29,22-6.45,25.57,1.94,17" transform="translate(-0.5 -0.5)"/><path id="path26" class="cls-31" d="M608.81,84.18a86.81,86.81,0,0,0-24,60.37h0a86.81,86.81,0,0,0,24,60.37h0a80.24,80.24,0,0,0,58,25h0a80.27,80.27,0,0,0,58-25h0a86.86,86.86,0,0,0,24-60.37h0a86.86,86.86,0,0,0-24-60.37h0a80.27,80.27,0,0,0-58-25h0a80.24,80.24,0,0,0-58,25Zm-3.76,124.48a92.23,92.23,0,0,1-25.56-64.11h0a92.22,92.22,0,0,1,25.56-64.1h0a85.44,85.44,0,0,1,61.76-26.58h0a85.46,85.46,0,0,1,61.77,26.58h0a92.21,92.21,0,0,1,25.55,64.1h0a92.22,92.22,0,0,1-25.55,64.11h0a85.5,85.5,0,0,1-61.77,26.58h0a85.48,85.48,0,0,1-61.76-26.58h0" transform="translate(-0.5 -0.5)"/><path id="path28" class="cls-32" d="M702.46,144.71l-12.9,2-17.42,2-11.3.32-11-.32L641.49,146l-7.42-8.19-5.81-16.72-1.29-3.6-7.74-2.63-4.52-7.54-3.23-10.81L615,87l8.39-3,6.77,3.28,3.23,7.21,3.87-.66,1.29-1.63-1.29-7.54L637,75.22l1.93-13.11-.07-7.49,5.88-9.56L655,37.52l18.06-7.87,20,3,17.42,12.79,8.06,13.11L723.76,68l1.29,23.6-3.88,20.32-7.09,18-6.78,9.51" transform="translate(-0.5 -0.5)"/><path id="path30" class="cls-33" d="M691.49,201.42l-46.13,2v7.87l3.87,27.53-1.94,2.3L615,229.94,612.77,226l-3.22-37-7.42-22.29-1.62-5.25,25.81-18,8.07-3.28,7.1,8.85,6.13,5.58,7.09,2.29,3.23,1,3.87,17,2.9,3.61,7.43-2.63L667,186,695,199.46l-3.55,2" transform="translate(-0.5 -0.5)"/><path id="path32" class="cls-34" d="M615,87l8.39-3,6.77,3.28,3.23,7.21,3.87-.66,1-3.93-1.94-7.54,1.94-18-1.61-9.83,5.8-6.89L655,37.52l-3.55-4.92-17.75,8.86-7.42,5.9-4.19,9.17-6.45,8.85-1.94,10.49L615,87" transform="translate(-0.5 -0.5)"/><path id="path34" class="cls-35" d="M628.26,56.21s4.84-12.13,24.2-18,1-4.26,1-4.26l-21,8.19-8.06,8.2-3.55,6.55,7.42-.65" transform="translate(-0.5 -0.5)"/><path id="path36" class="cls-35" d="M618.58,84.73s-6.78-23,19-26.23l-1-3.93L618.9,58.83l-5.16,17L615,87l3.55-2.29" transform="translate(-0.5 -0.5)"/><path id="path38" class="cls-36" d="M628.9,115.21l4.23-4.16a2.75,2.75,0,0,1,2.23,2.52c.32,2.3,1.29,23,15.16,34.09,1.26,1-10.32-1.64-10.32-1.64l-10.33-16.39" transform="translate(-0.5 -0.5)"/><path id="path40" class="cls-36" d="M688.27,109s.75-9.93,3.38-9.17a3.68,3.68,0,0,1,2.64,3.44s-6.4,4.2-6,5.73" transform="translate(-0.5 -0.5)"/><path id="path42" class="cls-37" d="M715,72.6s-5.31,1.14-5.8,5.9,5.8,1,6.77.65" transform="translate(-0.5 -0.5)"/><path id="path44" class="cls-37" d="M676,72.93s-7.1,1-7.1,5.57,8.07,4.26,10.32,2.29" transform="translate(-0.5 -0.5)"/><path id="path46" class="cls-36" d="M632.13,94.23s-12.26-7.54-13.55-.33-4.19,12.46,1.94,20l-4.2-1.31-3.87-10.16-1.29-9.84,7.42-7.86,8.39.65,4.84,3.93.32,4.92" transform="translate(-0.5 -0.5)"/><path id="path48" class="cls-36" d="M637.94,73.58s5.48-28.85,33.23-34.42c22.84-4.59,34.84,1,39.36,6.23,0,0-20.33-24.59-39.69-17S637.29,49.65,637.61,58.5c.55,15.07.33,15.08.33,15.08" transform="translate(-0.5 -0.5)"/><path id="path50" class="cls-36" d="M712.79,48.67s-9.36-.33-9.68,8.19a6.66,6.66,0,0,0,.64,2.62s7.42-8.52,11.94-3.93" transform="translate(-0.5 -0.5)"/><path id="path52" class="cls-36" d="M671.82,60.37s-1.61-13.08-12.59-5.47c-7.1,4.91-6.45,11.8-5.16,13.11S655,72,656,70.15s.66-7.72,4.21-9.35,9.36-3.47,11.62-.43" transform="translate(-0.5 -0.5)"/><path id="path54" class="cls-38" d="M641.49,149l-30.33,13.77s12.58,50.81,6.13,66.55l-4.52-1.64-.32-19.34-8.39-36.72-3.55-10.16,31.62-21.63,9.36,9.17" transform="translate(-0.5 -0.5)"/><path id="path56" class="cls-38" d="M644.6,177.08l4.31,5.33v19.67h-5.17s-.64-13.77-.64-15.41.64-7.54.64-7.54" transform="translate(-0.5 -0.5)"/><path id="path58" class="cls-38" d="M644.71,205l-14.52.65,4.2,2.95,10.32,1.64" transform="translate(-0.5 -0.5)"/><path id="path60" class="cls-33" d="M694.4,201.75l11.93-.33,2.91,30.16L697,233.22l-2.58-31.47" transform="translate(-0.5 -0.5)"/><path id="path62" class="cls-33" d="M697.62,201.75l18.07-1s7.42-19,7.42-20,6.45-27.53,6.45-27.53L715,137.83l-2.9-2.62-7.74,7.86v30.49l-6.78,28.19" transform="translate(-0.5 -0.5)"/><path id="path64" class="cls-38" d="M705.69,199.46l-11.29,2.29,1.61,9.18c4.19,2,11.29-3.28,11.29-3.28" transform="translate(-0.5 -0.5)"/><path id="path66" class="cls-38" d="M706,142.09l22.58,17,.65-7.87-17.1-16.06L706,142.09" transform="translate(-0.5 -0.5)"/><path id="path68" class="cls-3" d="M655.91,266.33l-6.68-27.54-3.32-20.32-.55-15.08,30.23-1.64H694.4l-1.71,34.42,2.9,26.56-.32,4.91-24.52,2-14.84-3.28" transform="translate(-0.5 -0.5)"/><path id="path70" class="cls-35" d="M690.2,201.42s-1.61,34.1,3.23,58.35a61,61,0,0,1-23.88,7.87l27.1-1,3.23-2L696,210.93l-1-11.47" transform="translate(-0.5 -0.5)"/><path id="path72" class="cls-3" d="M709.79,229l12.58-3.6L746.24,224l3.55-11.14-6.45-19.34-7.42-1-10.33,3.27-9.9,4.92-5.26-1-4.1,1.63" transform="translate(-0.5 -0.5)"/><path id="path74" class="cls-35" d="M709.56,222.4s8.39-3.93,9.68-3.6l-3.55-18,4.19-1.64s2.91,17,2.91,19c0,0,18.06,1,19.68,1,0,0,3.87-7.53,2.9-15.4l3.55,10.49.32,5.9L744.08,228l-5.81,1.31-9.68-.33-3.22-4.26-11.29,1.64-3.55,1.31" transform="translate(-0.5 -0.5)"/><path id="path76" class="cls-39" d="M696.88,199.13l-7.1-18.36L682.36,170s1.62-4.59,3.87-4.59h7.43l7.09,2.62-.64,12.13-3.23,19" transform="translate(-0.5 -0.5)"/><path id="path78" class="cls-35" d="M698.27,192.9s-9-17.7-9-20.32c0,0,1.62-3.94,3.88-3s7.09,3.6,7.09,3.6V167l-11-2.29-7.42,1,12.59,30.16,2.58.33" transform="translate(-0.5 -0.5)"/><path id="path80" class="cls-39" d="M658.81,149.63l-8.94-1L641.49,146V149l4.09,4.6,12.91,5.9" transform="translate(-0.5 -0.5)"/><path id="path82" class="cls-35" d="M644.39,150.62s10,4.26,13.23,3.28l.32,3.93-9-2-5.49-3.93,1-1.31" transform="translate(-0.5 -0.5)"/><path id="path84" class="cls-29" d="M709.75,166.48A60.33,60.33,0,0,1,695,164.42c.3-1.8-.25-3.57.19-4.87,1.2-.89,3.23-.87,5-1.08a8.61,8.61,0,0,0-5.61-.64,9.5,9.5,0,0,0-.93-3c3.07-1.12,10.34-8.44,14.43-6,2,1.15,2.77,7.73,2.92,10.93.13,2.66-.23,5.34-1.3,6.74" transform="translate(-0.5 -0.5)"/><path id="path86" class="cls-40" d="M709.75,166.48A60.33,60.33,0,0,1,695,164.42c.3-1.8-.25-3.57.19-4.87,1.2-.89,3.23-.87,5-1.08a8.61,8.61,0,0,0-5.61-.64,9.5,9.5,0,0,0-.93-3c3.07-1.12,10.34-8.44,14.43-6,2,1.15,2.77,7.73,2.92,10.93C711.18,162.4,710.82,165.08,709.75,166.48Z" transform="translate(-0.5 -0.5)"/><path id="path88" class="cls-29" d="M683.57,157.39c0,.42,0,.85,0,1.27-1.71,1.14-4.47,1.13-6.35,2.09A16.32,16.32,0,0,1,684,162.5c0,1.06-.08,2.12-.13,3.18-3.13,2.18-6,5.42-9.68,7.47-1.74,1-7.86,3.45-9.72,3-1.05-.25-1.14-1.57-1.56-2.82-.9-2.67-3-6.92-3.14-11-.22-5.08-.73-13.59,4.66-12.54a47.53,47.53,0,0,1,12.77,4.74c2,1.15,3.24,2.56,6.36,2.8" transform="translate(-0.5 -0.5)"/><path id="path90" class="cls-40" d="M683.57,157.39c0,.42,0,.85,0,1.27-1.71,1.14-4.47,1.13-6.35,2.09A16.32,16.32,0,0,1,684,162.5c0,1.06-.08,2.12-.13,3.18-3.13,2.18-6,5.42-9.68,7.47-1.74,1-7.86,3.45-9.72,3-1.05-.25-1.14-1.57-1.56-2.82-.9-2.67-3-6.92-3.14-11-.22-5.08-.73-13.59,4.66-12.54a47.53,47.53,0,0,1,12.77,4.74C679.26,155.74,680.45,157.15,683.57,157.39Z" transform="translate(-0.5 -0.5)"/><path id="path92" class="cls-29" d="M686.69,163.45c-.48-2.76-1-3.55-.82-6,7.26-4.92,8.63,8.45.82,6" transform="translate(-0.5 -0.5)"/><path id="path94" class="cls-40" d="M686.69,163.45c-.48-2.76-1-3.55-.82-6C693.13,152.56,694.5,165.93,686.69,163.45Z" transform="translate(-0.5 -0.5)"/><path id="path96" class="cls-41" d="M697.2,165.7s-2.26-3.28-.64-4.27,3.22,0,4.19-1.63,0-2.63.33-4.59,1.93-2.3,3.54-2.63,6.13-1,6.78.66l-1.94-5.9L705.59,146l-12.26,7.21-.64,3.61v7.21" transform="translate(-0.5 -0.5)"/><path id="path98" class="cls-41" d="M663.33,176.51c-.39-5.11-.8-10.22-1.26-15.33-.68-7.63,1.81-6.3,8.32-6.3,1,0,6.12,1.2,6.49,2,1.76,3.65-2.94,2.84,2,5.59,4.19,2.32,11.6-1.41,9.91-6.58-1-1.15-5-.36-6.38-1.11l-7.56-4c-3.21-1.69-10.62-4.16-14-1.8-8.66,6,.55,20.95,3.64,27.19" transform="translate(-0.5 -0.5)"/><path id="path100" class="cls-42" d="M671.82,60.37c-8.8-2.08-13.16,3.74-15.83,9.78-2.38-.59-1.43-3.88-.83-5.55,1.57-4.4,7.92-10.26,13.1-9.46,2.23.34,5.25,2.41,3.56,5.23" transform="translate(-0.5 -0.5)"/><path id="path102" class="cls-42" d="M714.66,70.55h.42c2,4.2,3.71,8.64,6.21,12.34-1.68,4-12.71,7.49-12.54.36,2.38-1.06,6.5-.22,8.62-1.57-1.22-3.41-3-6.32-2.71-11.14" transform="translate(-0.5 -0.5)"/><path id="path104" class="cls-42" d="M676.32,70.66c1.89,3.51,2.5,7.2,5.18,9.85,1.21,1.2,3.55,2.65,2.39,6a7.47,7.47,0,0,1-3.41,2.87c-4.19,1.26-14,.26-10.64-5,3.46.17,8.12,2.29,10.71-.27-2-3.23-5.54-9.62-4.23-13.38" transform="translate(-0.5 -0.5)"/><path id="path106" class="cls-42" d="M713.09,106.35c-6.31,4.12-13.34,8.59-23.68,7.55a7.21,7.21,0,0,1-.91-9.16c1.12,2,.42,5.54,3.53,6.08,5.87,1,12.69-3.64,16.91-5.27,2.62-4.48-.22-6.13-2.58-9-4.82-5.91-11.3-13.23-11.06-22.08,2-1.43,2.12,2.2,2.4,2.86,2.52,6,8.86,13.65,13.48,18.78,1.14,1.26,3,2.47,3.22,3.31.6,2.42-1.56,5.33-1.31,6.95" transform="translate(-0.5 -0.5)"/><path id="path108" class="cls-42" d="M629.92,102c-2-1.14-2.45-6.19-4.77-6.34-3.32-.2-2.71,6.55-2.7,10.51-2.28-2.11-2.68-8.6-1-11.93-1.92-1-2.77,1-3.83,1.76,1.36-10.06,14.48-4.66,12.3,6" transform="translate(-0.5 -0.5)"/><path id="path110" class="cls-42" d="M717.11,110.54c-2.94,5.68-7.09,11.93-15.71,12.11a21.74,21.74,0,0,1,0-5.73c6.59-.64,10.65-4,15.7-6.38" transform="translate(-0.5 -0.5)"/><path id="path112" class="cls-42" d="M675.82,114.22c5.5,2.94,15.6,3.25,23.07,3a27.3,27.3,0,0,1,.41,5.74c-9.61.49-21-1.92-23.48-8.77" transform="translate(-0.5 -0.5)"/><path id="path114" class="cls-42" d="M674.78,119.69c3.8,9.7,16.86,8.58,27.88,8.32a6,6,0,0,1-2.85,3.28c-3.53,1.46-13.26,2.57-18.16-.08-3.11-1.68-5.11-5.47-6.81-7.69-.82-1.08-4.92-3.82-.06-3.83" transform="translate(-0.5 -0.5)"/><path id="path116" class="cls-43" d="M712.63,173.17c-4.46,7.77-8.73,15.74-14,22.58,2.22-6.62,3.17-17.72,3.5-26.17,4.65-2.21,8.62.49,10.52,3.59" transform="translate(-0.5 -0.5)"/><path id="path118" class="cls-42" d="M736.63,201.07c-5,1-8.5,6-13.37,5.63,2.67-3.84,7.37-5.45,13.37-5.63" transform="translate(-0.5 -0.5)"/><path id="path120" class="cls-42" d="M738.83,209c-4.07.44-8.85,1.11-13,.76,2-3,9.49-2,13-.76" transform="translate(-0.5 -0.5)"/><path id="path122" class="cls-42" d="M740.24,215.85c-4.57.11-10.26,0-14.6-.36,2.57-2.8,11.64-1,14.6.36" transform="translate(-0.5 -0.5)"/><path id="path124" class="cls-35" d="M704,234.59c.66,5.83,2.94,11.75,2.65,18.14-2.53.87-4,1.63-7.37,1.62-.24-5.43-.95-13.74-.74-18.92,1.67.12,4.13-1.21,5.46-.84" transform="translate(-0.5 -0.5)"/><path id="path126" class="cls-32" d="M696.65,148.57c-2.3,1.52-4.25,3.42-6.46,5.05-4.89.24-7.56-.35-11.15-3.2.06-.23.42-.13.43-.41,5.24,2.37,11.89-1,17.18-1.44" transform="translate(-0.5 -0.5)"/><path id="path128" class="cls-43" d="M669.16,184.83c1.44-6.33,7.08-9.61,12.2-13.1,5.28,6.81,8.49,15.58,12,24a122,122,0,0,1-24.23-10.93" transform="translate(-0.5 -0.5)"/><path id="path130" class="cls-42" d="M698.56,235.43c-.21,5.18.5,13.49.74,18.92,3.39,0,4.84-.75,7.37-1.62.29-6.39-2-12.31-2.65-18.14C702.69,234.22,700.23,235.55,698.56,235.43ZM645.8,206c2.23,20.87,5.47,38.42,11.41,56.9,13.17,4.06,29,4.42,40.7.75-2.14-10.43-1.21-23.13-2.46-34.26-.94-8.37-.46-16.79-1.75-25.32C679.59,201.07,659.65,203.35,645.8,206Zm51.24-1.8c-.12,9,.39,17.8,1.06,26.78,3.39-.52,5.69-.86,8.84-1.56-1-8.64-.9-18.37-3-26A20.43,20.43,0,0,0,697,204.18Zm17.18-1.45c-1.61-.37-3.48,0-5,0,.73,7.31,2.48,15.37,3.09,23,2.42.08,3.71-1.08,5.7-1.47.11-6.73-.58-16-3.77-21.59Zm26,24.16c5-1.24,8.21-7.51,6.8-13.95-.95-4.33-2.63-12.48-4.44-15.24-1.33-2-4.94-4.73-7.82-2.86-4.69,3.06-12.95,3.94-16.38,7.64,1.72,5.8,2.25,13.77,3,21.12,5.86.37,13.07-1.64,17.94.49-3.4,1.12-7.81,1.13-10.75,2.76,2.4,1.18,8,.94,11.69,0Zm-46.85-31.13c-3.54-8.45-6.75-17.22-12-24-5.12,3.49-10.76,6.77-12.2,13.1A122,122,0,0,0,693.39,195.76Zm8.72-26.18c-.33,8.45-1.28,19.55-3.5,26.17,5.29-6.84,9.56-14.81,14-22.58C710.73,170.07,706.76,167.37,702.11,169.58ZM692.23,166c-2-.22-3.71,2.34-6.32,1.23-.59.67-1.14,1.4-1.74,2,5.75,7.05,8.37,17.05,12.81,25.34,2.39-8,2.12-16.68,2.64-25.36C696.34,169.48,694.52,166.26,692.23,166Zm-6.36-8.53c-.21,2.42.34,3.21.82,6C694.5,165.93,693.13,152.56,685.87,157.48Zm-8.66-2.89a47.53,47.53,0,0,0-12.77-4.74c-5.39-1-4.88,7.46-4.66,12.54.18,4,2.24,8.28,3.14,11,.42,1.25.51,2.57,1.56,2.82,1.86.44,8-2,9.72-3,3.69-2.05,6.55-5.29,9.68-7.47,0-1.06.09-2.12.13-3.18a16.32,16.32,0,0,0-6.83-1.75c1.88-1,4.64-.95,6.35-2.09,0-.42,0-.85,0-1.27C680.45,157.15,679.26,155.74,677.21,154.59Zm-32.15-5.93c-2.79,2.88,7.84,6.81,11.22,7,0-1.82,1-3.54.81-4.85C653.07,150.11,647.79,150.59,645.06,148.66ZM679.47,150c0,.28-.37.18-.43.41,3.59,2.85,6.26,3.44,11.15,3.2,2.21-1.63,4.16-3.53,6.46-5.05C691.36,149.05,684.71,152.38,679.47,150Zm31.58,9.73c-.15-3.2-1-9.78-2.92-10.93-4.09-2.43-11.36,4.89-14.43,6a9.5,9.5,0,0,1,.93,3,8.61,8.61,0,0,1,5.61.64c-1.82.21-3.85.19-5,1.08-.44,1.3.11,3.07-.19,4.87a60.33,60.33,0,0,0,14.75,2.06C710.82,165.08,711.18,162.4,711.05,159.74Zm-70.69-8.29c-.88-.64-6.81-8.48-7.63-8.16C622,147.59,612,155,603,162.07c8.55,18.65,12,41.5,12.61,63.52,9.8,4.66,18.41,11.37,31.71,12.07-1.54-11.06-2.95-20.93-3.82-31.34-3.34-1.43-8.14.06-11.26-.45,0-3.83,4.77-1.67,5.17-4.25.3-1.94-2.64-2.09-1.68-5.16,2.44.9,3.73,2.9,6.33,3.65,2.39-5.3,0-14.67.31-19.09.07-.83.41-4.6,2.24-3.94,1.63.58-.09,10,.09,14.22.16,3.86-.46,7.59,1.08,10A363.73,363.73,0,0,1,685.58,198a94.91,94.91,0,0,1-10.68-4.88c-2.16-1.23-9-3.81-9.59-5.89-1-3.32,2.61-5.09,3.23-7.94-6.49,3.6-7.75-3.44-9.29-8.43a66.24,66.24,0,0,1-2.52-10.5c-5.59-2.7-11.56-5.44-16.37-8.91Zm65-7.21c9-4.41,10.56,16.47,7,23.2.54,2,2.41,2.78,3.17,4.58-5,9.09-10.54,17.57-15.63,26.55,3.79-2.4,9.2-.43,13.66-2.23,1.63-.65,2.81-4.44,4-7.47,3.4-8.35,7-18.87,8.54-26.83.36-1.82,1.34-5.77,1.12-7.38-.39-2.89-4.25-5-6.22-6.83-3.61-3.3-5.89-6.2-9.67-9.29-1.53,2.29-4.81,3.83-6.06,5.7ZM619.9,63.63c-4.26,4.77-3.37,13.7-2.86,20.05,7.71-4.92,17.94.39,17.84,8.77,3.68-.1,1.37-4.67.71-7.61-2.18-9.62,3.66-20.06.26-28.85a23.18,23.18,0,0,0-16,7.64ZM650.4,36c-9.65,2.78-22,9.91-26,18.72,3.07-.46,5.2-2,8.23-2.23,1.14-.07,2.64.49,4,.16,2.62-.66,4.83-6.63,6.81-8.86s4.25-3.09,5.83-5.07c1-.5,2.53-.47,2.59-2C651.39,36.19,650.93,35.82,650.4,36Zm50.24,2.62c-10-5.74-27-10.06-37.63-4.67-8.6,4.36-20.22,11.57-24.18,20.7,3.7,8.81-1.1,16.88-1.4,25.83-.17,4.76,2.2,8.92,2.38,14.1-1.26,2.12-5.13,2.39-7.81,2.24-.9-4.58-2.48-9.74-7.13-10.26-6.57-.73-11.38,4.8-11.68,10.58-.35,6.79,5.14,18.06,12.92,17.27,3-.3,3.74-3.36,7-3.33,1.77,3.6-2.74,4.73-3.2,7.3a20.32,20.32,0,0,0,.66,4.49c1.41,5.93,4.56,13.61,7.66,18.12,3.94,5.73,11.67,6.6,20,7.16,1.49-3.25,7-3,10.53-2.14-4.28-1.72-8.25-5.89-11.55-9.58-3.78-4.23-7.61-8.77-7.8-14.31,7.14,10.08,13.05,18.88,26.05,23.31,9.83,3.35,21.32-1.54,28.88-6.93,3.13-2.24,5-5.8,7.23-9.05C719.92,117.23,723.82,99.83,723,83c-.35-7-.34-13.89-2.63-18.57-2.4-4.89-10.52-9.27-15.27-4.84-.88-4.76,4-7.7,9.62-6-4-5.31-8.29-11.68-14-15ZM719.3,195.51c7.82-4,22.45-10.64,27.36,0a91.84,91.84,0,0,1,4.87,14.62c1.32,5.72-1.44,17.75-7.22,19.67-5.12,1.69-11.08,1.59-17.24.33a9.51,9.51,0,0,1-2.09-2.79c-4.4-.17-8.51.24-12,2.08.33,3.3-1.87,3.83-3.93,4.51-1.53,6.16,3.06,14.2,2,19.81-.78,4-5.63,4.62-9.19,5.37a32,32,0,0,0,.4,6c-.81,3-4.46,4.78-7.92,5.2-11.38,1.39-28.66,2-39.61-2-3.05-7.62-5.46-16.88-8-25.57-10.68,1.16-19.32-4.68-27.46-8.51-2.82-1.32-6.72-2.05-7.77-4.33s-.6-6.44-.85-10.44c-.65-10.2-1.2-20-3.85-30.49-1.19-4.69-3.27-8.83-4.72-13.35-1.34-4.18-3.67-9.36-4.28-13.53-.91-6.19,4.83-6.54,8.49-9.22,5.67-4.15,10.12-6.44,16.26-10.18,1.82-1.11,7.31-3.92,7.93-5.21,1.24-2.56-2.13-6.17-3-8.18a24.88,24.88,0,0,1-2.37-9,17,17,0,0,1-11.41-7.45C609.73,107,607,96.27,610.4,88.09c.27-.65,1.59-1.91,1.78-2.9.39-2-.72-4.54-.79-6.61-.35-10.63,1.77-19.79,8.82-23C623.06,44,633.3,40.16,642.94,34.41a70.85,70.85,0,0,1,11.68-5.06c14.72-5.5,37.3-4.47,49.52,4.92,5.18,4,13.46,12.39,16.42,18.47,7.83,16.07,7.27,42.92,1.8,62.46a64,64,0,0,1-3.29,9.63c-1,2.2-4.27,6.61-3.88,8.55s7.36,7.38,8.85,8.84c2.69,2.63,7.79,6.12,8.21,9.45.44,3.53-1.54,8.37-2.54,11.78-3.35,11.38-6.62,21.91-10.41,32.06" transform="translate(-0.5 -0.5)"/><path id="path132" class="cls-36" d="M667.08,116.7c.42-.58,2.76-1.45,6,.15,0,0-3.87.66-3.55,7.21l-1.61-.32s-1.67-5.95-.86-7" transform="translate(-0.5 -0.5)"/><path id="path134" class="cls-44" d="M695.36,173.07a1.77,1.77,0,1,1-1.77-1.8,1.79,1.79,0,0,1,1.77,1.8" transform="translate(-0.5 -0.5)"/><path id="path136" class="cls-44" d="M697.14,181.43a1.78,1.78,0,1,1-1.78-1.81,1.79,1.79,0,0,1,1.78,1.81" transform="translate(-0.5 -0.5)"/></g></g><g id="layer1"><g id="g3052"><path id="path3055" class="cls-45" d="M1792.16,26a13.14,13.14,0,0,0-5.1,1.31l-69.63,33.8a13.46,13.46,0,0,0-7.21,9.11l-17.17,75.93a13.51,13.51,0,0,0,1.8,10.29c.24.37.49.72.76,1.06l48.2,60.89a13.26,13.26,0,0,0,10.41,5.05l77.28,0a13.27,13.27,0,0,0,10.41-5l48.18-60.89a13.52,13.52,0,0,0,2.58-11.36l-17.21-75.93a13.38,13.38,0,0,0-7.2-9.1l-69.64-33.79A13.12,13.12,0,0,0,1792.16,26Z" transform="translate(-0.5 -0.5)"/><path id="path3059" class="cls-46" d="M1792.85,51.86a4.46,4.46,0,0,0-4.17,4.7s0,.08,0,.12c0,.35,0,.78,0,1.09a37.77,37.77,0,0,0,.57,4,40.48,40.48,0,0,1,.47,7.69,4.69,4.69,0,0,1-1.36,2.19l-.1,1.79a53.23,53.23,0,0,0-34.76,17c-.46-.32-1.27-.91-1.51-1.09a3.19,3.19,0,0,1-2.47-.24A39,39,0,0,1,1743.9,84a35.58,35.58,0,0,0-2.74-3c-.26-.22-.65-.52-.93-.75a4.86,4.86,0,0,0-2.9-1.11,4,4,0,0,0-3.32,1.49,4.54,4.54,0,0,0,1,6.25l.06,0c.28.23.61.52.87.71a34.71,34.71,0,0,0,3.45,2,39.08,39.08,0,0,1,6.2,4.43,4.79,4.79,0,0,1,.84,2.44l1.33,1.21a55.48,55.48,0,0,0-8.5,38.2l-1.75.52a5.94,5.94,0,0,1-1.79,1.84,38.83,38.83,0,0,1-7.47,1.24,35.14,35.14,0,0,0-4,.33c-.32.06-.76.18-1.11.26h0l-.06,0a4.48,4.48,0,0,0-3.53,5.16,4.4,4.4,0,0,0,5.38,3.09h.07l.08,0,1.07-.25a34.24,34.24,0,0,0,3.74-1.46,39,39,0,0,1,7.27-2.17,4.68,4.68,0,0,1,2.4.86l1.81-.31a55,55,0,0,0,24,30.49l-.76,1.84a4.33,4.33,0,0,1,.37,2.4,41.61,41.61,0,0,1-3.77,6.89,35.36,35.36,0,0,0-2.24,3.38c-.16.32-.37.81-.53,1.14a4.52,4.52,0,0,0,1.77,6,4.38,4.38,0,0,0,5.75-2.39h0c.16-.33.39-.76.52-1.07a35.14,35.14,0,0,0,1.2-3.89c1.1-2.81,1.71-5.76,3.23-7.6a3.28,3.28,0,0,1,1.79-.89l1-1.74a53.09,53.09,0,0,0,31.31,2.29,53.9,53.9,0,0,0,7.15-2.19c.27.48.76,1.4.89,1.63a3.3,3.3,0,0,1,2.13,1.31,40.45,40.45,0,0,1,2.86,7.12,34.45,34.45,0,0,0,1.21,3.88c.13.32.36.76.51,1.09a4.4,4.4,0,0,0,5.77,2.4,4.52,4.52,0,0,0,1.77-6c-.16-.34-.38-.82-.54-1.14a36,36,0,0,0-2.24-3.38,39.46,39.46,0,0,1-3.7-6.72,3.39,3.39,0,0,1,.33-2.5,14,14,0,0,1-.7-1.71,54.94,54.94,0,0,0,24-30.71l1.78.32a3.25,3.25,0,0,1,2.33-.88,39,39,0,0,1,7.27,2.17,34.25,34.25,0,0,0,3.74,1.47c.3.08.73.16,1.08.24l.08,0h.06a4.4,4.4,0,0,0,5.38-3.09,4.48,4.48,0,0,0-3.53-5.16c-.36-.08-.86-.22-1.21-.29a35.14,35.14,0,0,0-4-.33,38.83,38.83,0,0,1-7.47-1.24,4.81,4.81,0,0,1-1.8-1.84l-1.68-.5a55.62,55.62,0,0,0-.88-19.77,55,55,0,0,0-7.81-18.34c.44-.4,1.25-1.13,1.48-1.35a3.39,3.39,0,0,1,.79-2.4,39,39,0,0,1,6.19-4.42,35,35,0,0,0,3.47-2c.27-.21.63-.52.92-.76a4.52,4.52,0,0,0,1-6.24,4.37,4.37,0,0,0-6.22-.38c-.28.23-.67.53-.92.75a35.75,35.75,0,0,0-2.75,3,40.15,40.15,0,0,1-5.62,5.17,4.58,4.58,0,0,1-2.53.28L1832,90.47a54.3,54.3,0,0,0-34.59-17c0-.56-.09-1.58-.1-1.89a3.33,3.33,0,0,1-1.36-2.11,39.67,39.67,0,0,1,.47-7.69,37.77,37.77,0,0,0,.57-4c0-.34,0-.84,0-1.21a4.46,4.46,0,0,0-4.17-4.7Zm-5.22,32.84-1.24,22.22-.08,0a3.71,3.71,0,0,1-3.67,3.58,3.65,3.65,0,0,1-2.17-.72l0,0-17.93-12.91a42.77,42.77,0,0,1,20.68-11.45C1784.67,85.14,1786.16,84.89,1787.63,84.7Zm10.45,0a43,43,0,0,1,25,12.24l-17.81,12.83-.06,0a3.64,3.64,0,0,1-5-.69,3.77,3.77,0,0,1-.81-2.16h0ZM1756,105.23l16.37,14.87,0,.09a3.76,3.76,0,0,1-1.44,6.42l0,.07-21,6.15A44.13,44.13,0,0,1,1756,105.23Zm73.57,0a44.92,44.92,0,0,1,6.27,27.53l-21.08-6.17,0-.09a3.75,3.75,0,0,1-2.61-4.44,3.7,3.7,0,0,1,1.17-2v0l16.28-14.81Zm-40.09,16h6.71l4.17,5.29-1.5,6.61-6,2.94-6-3-1.49-6.61Zm21.5,18.11a4,4,0,0,1,.85.07l0-.05,21.7,3.73a43.53,43.53,0,0,1-17.37,22.18l-8.42-20.68,0,0a3.76,3.76,0,0,1,1.78-4.84,3.67,3.67,0,0,1,1.41-.38Zm-36.45.09a3.74,3.74,0,0,1,3.32,5.21l.07.08-8.34,20.47a43.77,43.77,0,0,1-17.32-22l21.51-3.71,0,.05a3.58,3.58,0,0,1,.72-.07Zm18.18,9a3.67,3.67,0,0,1,3.36,2h.08l10.61,19.48a43.08,43.08,0,0,1-27.76,0l10.58-19.44h0A3.68,3.68,0,0,1,1792.72,148.42Z" transform="translate(-0.5 -0.5)"/></g></g><path class="cls-47" d="M1601.33,914.36c-1.28-9.46-6.41-17.67-15.66-25.09l-5.36-3.68-3.56,5.49c-4.57,7.08-6.86,16.93-6.13,26.39a34.09,34.09,0,0,0,4.68,14.44,37,37,0,0,1-18.51,4.2h-166.1l-.34,2c-1.56,9.46-1.56,39.08,17.12,61.79,14.21,17.27,35.45,26.05,63.2,26.05,60.2,0,104.68-28.49,125.59-80.37,8.19.17,25.86.06,34.94-17.78.23-.4.79-1.47,2.35-4.87l.89-1.87-5.07-3.51c-5.58-3.68-18.23-5.1-28-3.17Zm-77.81-63.26h-25.25v23.61h25.25Zm0,28.37h-25.25v23.62h25.25Zm-29.88,0h-25.25v23.62h25.25Zm-29.82,0h-25.25v23.62h25.25Zm-29.88,28.37h-25.25v23.62h25.25Zm29.88,0h-25.25v23.62h25.25Zm29.82,0h-25.25v23.62h25.25Zm29.88,0h-25.25v23.62h25.25Zm29.87,0h-25.25v23.62h25.25Z" transform="translate(-0.5 -0.5)"/><path class="cls-39" d="M241.77,548.74l-2.47,2.48a1.57,1.57,0,0,1-2.28,0l-23.08-23.08a1.55,1.55,0,0,1,0-2.28L237,502.78a1.57,1.57,0,0,1,2.28,0l2.47,2.48a1.55,1.55,0,0,1,0,2.28L222.31,527l19.46,19.46a1.55,1.55,0,0,1,0,2.28ZM271,495.9l-18.47,63.93a1.6,1.6,0,0,1-.77,1,1.33,1.33,0,0,1-1.16.12l-3.07-.84a1.63,1.63,0,0,1-1-.77,1.5,1.5,0,0,1-.12-1.21L265,494.17a1.6,1.6,0,0,1,.77-1,1.33,1.33,0,0,1,1.16-.12l3.07.84a1.63,1.63,0,0,1,1,.77A1.5,1.5,0,0,1,271,495.9Zm32.54,32.24L280.5,551.22a1.57,1.57,0,0,1-2.28,0l-2.47-2.48a1.55,1.55,0,0,1,0-2.28L295.21,527l-19.46-19.46a1.55,1.55,0,0,1,0-2.28l2.47-2.48a1.57,1.57,0,0,1,2.28,0l23.08,23.08a1.57,1.57,0,0,1,0,2.28Z" transform="translate(-0.5 -0.5)"/><text class="cls-48" transform="translate(148.83 598.32)"><tspan class="cls-49">C</tspan><tspan x="21.54" y="0">OMMIT </tspan><tspan class="cls-50" x="141.03" y="0">C</tspan><tspan x="162.57" y="0">ODE</tspan></text><text class="cls-48" transform="translate(302.83 100.76)"><tspan class="cls-51">P</tspan><tspan x="21.57" y="0">ULL </tspan><tspan class="cls-50" x="89.94" y="0">C</tspan><tspan x="111.48" y="0">ODE</tspan></text><text class="cls-48" transform="translate(724.55 598.13)">BUILD <tspan class="cls-49" x="107.82" y="0">C</tspan><tspan x="129.36" y="0">ODE</tspan></text><text class="cls-48" transform="translate(786.86 100.76)"><tspan class="cls-49">C</tspan><tspan x="21.54" y="0">O</tspan><tspan class="cls-52" x="46.86" y="0">P</tspan><tspan x="68.52" y="0">Y A</tspan><tspan class="cls-52" x="120.27" y="0">R</tspan><tspan x="142.02" y="0">TI</tspan><tspan class="cls-53" x="170.4" y="0">F</tspan><tspan class="cls-52" x="188.7" y="0">A</tspan><tspan class="cls-54" x="211.38" y="0">C</tspan><tspan class="cls-55" x="233.16" y="0">T</tspan><tspan x="251.55" y="0">S</tspan></text><text class="cls-48" transform="translate(1332.35 100.76)">DE<tspan class="cls-52" x="44.91" y="0">P</tspan><tspan class="cls-56" x="66.57" y="0">L</tspan><tspan class="cls-57" x="84.33" y="0">O</tspan><tspan x="108.75" y="0">Y </tspan><tspan class="cls-49" x="137.52" y="0">C</tspan><tspan x="159.06" y="0">ON</tspan><tspan class="cls-58" x="208.62" y="0">T</tspan><tspan x="226.11" y="0">AINER</tspan></text><rect class="cls-59" x="783.5" y="516.97" width="39.34" height="39.34"/><path class="cls-39" d="M856.82,518.29A18.86,18.86,0,1,1,838,537.14a18.88,18.88,0,0,1,18.85-18.85m0-5a23.86,23.86,0,1,0,23.86,23.85,23.85,23.85,0,0,0-23.86-23.85Z" transform="translate(-0.5 -0.5)"/><polygon class="cls-59" points="804.43 502.74 855.49 502.74 829.96 462.5 804.43 502.74"/><text class="cls-48" transform="translate(1196.35 598.13)"><tspan class="cls-51">P</tspan><tspan x="21.57" y="0">USH IM</tspan><tspan class="cls-52" x="135.57" y="0">A</tspan><tspan x="158.25" y="0">GE</tspan></text><text class="cls-48" transform="translate(1624.28 598.13)"><tspan class="cls-51">P</tspan><tspan x="21.57" y="0">ULL IM</tspan><tspan class="cls-52" x="128.43" y="0">A</tspan><tspan x="151.11" y="0">GE</tspan></text><line class="cls-60" x1="684" y1="290" x2="798" y2="439"/><line class="cls-60" x1="830" y1="637" x2="830" y2="813"/><line class="cls-60" x1="1218.5" y1="269.33" x2="1280" y2="452"/><line class="cls-60" x1="1336.5" y1="635.5" x2="1408" y2="810"/><line class="cls-60" x1="1684.5" y1="643.5" x2="1620.5" y2="824.5"/></g><g id="Layer_3" data-name="Layer 3"><path class="cls-1" d="M276.5,637.5" transform="translate(-0.5 -0.5)"/><line class="cls-60" x1="146" y1="811" x2="258" y2="637"/><line class="cls-60" x1="246" y1="462" x2="125" y2="254"/><line class="cls-60" x1="274" y1="152" x2="536.4" y2="152"/><polygon class="cls-61" points="519.67 166.24 533.92 152 519.67 137.76 531.76 137.76 546 152 531.76 166.24 519.67 166.24"/><line class="cls-60" x1="791" y1="152" x2="1053.4" y2="152"/><polygon class="cls-61" points="1036.67 166.24 1050.92 152 1036.67 137.76 1048.76 137.76 1063 152 1048.76 166.24 1036.67 166.24"/><line class="cls-60" x1="1342" y1="152" x2="1637.4" y2="152"/><polygon class="cls-61" points="1620.67 166.24 1634.92 152 1620.67 137.76 1632.76 137.76 1647 152 1632.76 166.24 1620.67 166.24"/><line class="cls-60" x1="1738.5" y1="452.5" x2="1787" y2="269"/></g><g id="Layer_2" data-name="Layer 2"><rect class="cls-62" x="1275.54" y="501.8" width="42.96" height="40.18"/><rect class="cls-62" x="1703.35" y="502.08" width="42.96" height="40.18"/></g></svg>