<svg id="svg3055" xmlns="http://www.w3.org/2000/svg" xmlns:xlink="http://www.w3.org/1999/xlink" viewBox="0 0 51.2 68.48"><defs><style>.cls-1{fill:url(#linear-gradient);}.cls-2{fill:none;}.cls-3,.cls-4{fill:#be202e;}.cls-4{opacity:0.35;isolation:isolate;}.cls-5{fill:url(#linear-gradient-2);}.cls-6{fill:url(#linear-gradient-3);}.cls-7{fill:url(#linear-gradient-4);}.cls-8{fill:url(#linear-gradient-5);}.cls-9{fill:url(#linear-gradient-6);}.cls-10{fill:url(#linear-gradient-7);}.cls-11{fill:url(#linear-gradient-8);}.cls-12{fill:url(#linear-gradient-9);}.cls-13{fill:url(#linear-gradient-10);}.cls-14{fill:url(#linear-gradient-11);}.cls-15{fill:url(#linear-gradient-12);}.cls-16{fill:url(#linear-gradient-13);}.cls-17{fill:url(#linear-gradient-14);}.cls-18{fill:url(#linear-gradient-15);}.cls-19{fill:url(#linear-gradient-16);}.cls-20{fill:url(#linear-gradient-17);}.cls-21{fill:url(#linear-gradient-18);}.cls-22{fill:url(#linear-gradient-19);}.cls-23{fill:url(#linear-gradient-20);}</style><linearGradient id="linear-gradient" x1="-9374.47" y1="297.4" x2="-9298.83" y2="208.95" gradientTransform="matrix(-0.02, -0.12, -0.12, 0.02, -158.74, -1081.27)" gradientUnits="userSpaceOnUse"><stop offset="0" stop-color="#f69923"/><stop offset="0.31" stop-color="#f79a23"/><stop offset="0.84" stop-color="#e97826"/></linearGradient><linearGradient id="linear-gradient-2" x1="-9934.3" y1="307.4" x2="-9394.62" y2="307.4" gradientTransform="matrix(-0.02, -0.12, -0.12, 0.02, -158.74, -1081.27)" gradientUnits="userSpaceOnUse"><stop offset="0.32" stop-color="#9e2064"/><stop offset="0.63" stop-color="#c92037"/><stop offset="0.75" stop-color="#cd2335"/><stop offset="1" stop-color="#e97826"/></linearGradient><linearGradient id="linear-gradient-3" x1="-9869.15" y1="253.16" x2="-9547.55" y2="253.16" gradientTransform="matrix(-0.02, -0.12, -0.12, 0.02, -158.74, -1081.27)" gradientUnits="userSpaceOnUse"><stop offset="0" stop-color="#282662"/><stop offset="0.1" stop-color="#662e8d"/><stop offset="0.79" stop-color="#9f2064"/><stop offset="0.95" stop-color="#cd2032"/></linearGradient><linearGradient id="linear-gradient-4" x1="-9903.99" y1="312.38" x2="-9364.3" y2="312.38" xlink:href="#linear-gradient-2"/><linearGradient id="linear-gradient-5" x1="-9864.63" y1="304.99" x2="-9581.01" y2="304.99" xlink:href="#linear-gradient-3"/><linearGradient id="linear-gradient-6" x1="-9903.99" y1="256.53" x2="-9364.3" y2="256.53" xlink:href="#linear-gradient-2"/><linearGradient id="linear-gradient-7" x1="-9937.46" y1="259.24" x2="-9397.78" y2="259.24" xlink:href="#linear-gradient-2"/><linearGradient id="linear-gradient-8" x1="-9903.99" y1="239.8" x2="-9364.3" y2="239.8" xlink:href="#linear-gradient-2"/><linearGradient id="linear-gradient-9" x1="-9903.99" y1="241.77" x2="-9364.3" y2="241.77" xlink:href="#linear-gradient-2"/><linearGradient id="linear-gradient-10" x1="-9541.22" y1="242.11" x2="-9541.22" y2="242.11" xlink:href="#linear-gradient-2"/><linearGradient id="linear-gradient-11" x1="-8386.09" y1="-300.04" x2="-8310.45" y2="-388.49" gradientTransform="matrix(0.07, -0.11, -0.11, -0.07, 649.68, -945.75)" xlink:href="#linear-gradient"/><linearGradient id="linear-gradient-12" x1="-8945.92" y1="-290.04" x2="-8406.24" y2="-290.04" gradientTransform="matrix(0.07, -0.11, -0.11, -0.07, 649.68, -945.75)" xlink:href="#linear-gradient-2"/><linearGradient id="linear-gradient-13" x1="-8880.77" y1="-344.27" x2="-8559.18" y2="-344.27" gradientTransform="matrix(0.07, -0.11, -0.11, -0.07, 649.68, -945.75)" xlink:href="#linear-gradient-3"/><linearGradient id="linear-gradient-14" x1="-8915.61" y1="-285.05" x2="-8375.93" y2="-285.05" gradientTransform="matrix(0.07, -0.11, -0.11, -0.07, 649.68, -945.75)" xlink:href="#linear-gradient-2"/><linearGradient id="linear-gradient-15" x1="-8876.25" y1="-292.45" x2="-8592.63" y2="-292.45" gradientTransform="matrix(0.07, -0.11, -0.11, -0.07, 649.68, -945.75)" xlink:href="#linear-gradient-3"/><linearGradient id="linear-gradient-16" x1="-8915.61" y1="-340.9" x2="-8375.93" y2="-340.9" gradientTransform="matrix(0.07, -0.11, -0.11, -0.07, 649.68, -945.75)" xlink:href="#linear-gradient-2"/><linearGradient id="linear-gradient-17" x1="-8949.09" y1="-338.19" x2="-8409.41" y2="-338.19" gradientTransform="matrix(0.07, -0.11, -0.11, -0.07, 649.68, -945.75)" xlink:href="#linear-gradient-2"/><linearGradient id="linear-gradient-18" x1="-8915.61" y1="-357.63" x2="-8375.93" y2="-357.63" gradientTransform="matrix(0.07, -0.11, -0.11, -0.07, 649.68, -945.75)" xlink:href="#linear-gradient-2"/><linearGradient id="linear-gradient-19" x1="-8915.61" y1="-355.67" x2="-8375.93" y2="-355.67" gradientTransform="matrix(0.07, -0.11, -0.11, -0.07, 649.68, -945.75)" xlink:href="#linear-gradient-2"/><linearGradient id="linear-gradient-20" x1="-8552.84" y1="-355.32" x2="-8552.84" y2="-355.32" gradientTransform="matrix(0.07, -0.11, -0.11, -0.07, 649.68, -945.75)" xlink:href="#linear-gradient-2"/></defs><title>icon_maven</title><g id="g8927"><g id="g7248"><path id="path7258" class="cls-1" d="M23.57,10.06a23.37,23.37,0,0,0-1,6.5l3.49,1.69A44.07,44.07,0,0,1,26.34,12l0-.22a1.66,1.66,0,0,0,0,.22,38.48,38.48,0,0,0,0,6.13,67.63,67.63,0,0,0,5.17-4.88c-1.74-3.55-3.9-4.17-3.9-4.17S24.5,7.86,23.57,10.06Z" transform="translate(-22.49 -8.76)"/><path id="path7260" class="cls-2" d="M32.65,27.64s0,0,0,0l-.19.18,0,0Z" transform="translate(-22.49 -8.76)"/><path id="path7262" class="cls-2" d="M34.79,33.68c-.1.12-.21.23-.32.34C34.58,33.91,34.69,33.8,34.79,33.68Z" transform="translate(-22.49 -8.76)"/><path id="path7264" class="cls-2" d="M32.78,52.24c0-.06,0-.11,0-.16-.3-1.09-.59-2.15-.87-3.19s-.6-2.3-.88-3.4-.56-2.3-.82-3.39-.53-2.26-.76-3.34c-.19-.88-.37-1.73-.54-2.56-.06-.28-.11-.55-.16-.82-.11-.54-.21-1.07-.31-1.58l-.27-1.41c0-.16-.05-.31-.08-.45l0-.08-.16.15-.35-.17s0,.08,0,.11c.12.7.24,1.4.38,2.11.07.4.15.81.22,1.23.22,1.14.44,2.27.69,3.41s.5,2.3.76,3.43.52,2.24.79,3.35.55,2.2.83,3.29.58,2.26.89,3.36l.21.75c.24.89.48,1.76.73,2.62l.56.28.19-.17a.19.19,0,0,0,0-.07C33.4,54.42,33.08,53.31,32.78,52.24Z" transform="translate(-22.49 -8.76)"/><path id="path7266" class="cls-2" d="M34.39,34.1Z" transform="translate(-22.49 -8.76)"/><path id="path7268" class="cls-3" d="M35.67,36.87c-.16.18-.33.35-.5.52h0a3.31,3.31,0,0,0,.26-.27A2.77,2.77,0,0,0,35.67,36.87Z" transform="translate(-22.49 -8.76)"/><path id="path7270" class="cls-4" d="M35.67,36.87c-.16.18-.33.35-.5.52h0a3.31,3.31,0,0,0,.26-.27A2.77,2.77,0,0,0,35.67,36.87Z" transform="translate(-22.49 -8.76)"/><path id="path7272" class="cls-3" d="M34.39,34.09h0l.08-.07c.11-.11.22-.22.32-.34-.12.14-.26.27-.4.41Z" transform="translate(-22.49 -8.76)"/><path id="path7274" class="cls-4" d="M34.39,34.09h0l.08-.07c.11-.11.22-.22.32-.34-.12.14-.26.27-.4.41Z" transform="translate(-22.49 -8.76)"/><path id="path7286" class="cls-5" d="M27,28.55c-.17-1.16-.31-2.3-.45-3.43s-.23-2.31-.32-3.44c0-.07,0-.14,0-.2-.07-1.1-.13-2.18-.15-3.24l-3.49-1.68,0,.66c0,.84-.06,1.72-.07,2.65s0,2.15,0,3.3.07,2.16.13,3.28c.05,1,.12,1.92.19,2.91a.41.41,0,0,1,0,.11l4.66,2.36C27.34,30.73,27.17,29.64,27,28.55Z" transform="translate(-22.49 -8.76)"/><path id="path7298" class="cls-6" d="M33.89,56.11c.26.87.52,1.77.8,2.68,0,0,0,0,0,0s.07.25.11.38c.19.61.37,1.16.76,2.41a4.63,4.63,0,0,1,2.67.64,3.83,3.83,0,0,0-2.54-1.39c2.85-1.9,4.73-4.35,4.47-7.28,0-.26-.07-.53-.12-.8a3.29,3.29,0,0,1-1.87,2.82h0a9.22,9.22,0,0,0,1.49-5.8c0-.48-.1-1-.19-1.52a7.45,7.45,0,0,1-4.33,6l-1.41,1.31Z" transform="translate(-22.49 -8.76)"/><path id="path7310" class="cls-7" d="M32.08,52.14c-.3-1.11-.6-2.23-.9-3.37s-.55-2.18-.82-3.29-.54-2.23-.8-3.34-.51-2.29-.75-3.44-.47-2.27-.69-3.4c-.08-.41-.16-.82-.23-1.23-.13-.7-.25-1.41-.37-2.11a.53.53,0,0,0,0-.12l-4.63-2.36a1.38,1.38,0,0,1,0,.22c.09,1.05.18,2.11.3,3.19s.26,2.17.43,3.28c.13.93.28,1.85.43,2.78,0,.18.07.37.11.56.21,1.15.44,2.26.68,3.3s.58,2.29.88,3.32c.2.67.4,1.32.6,1.94s.37,1,.55,1.55c.44,1.21.93,2.38,1.46,3.52L33,55.51c-.25-.86-.48-1.74-.74-2.62C32.21,52.64,32.15,52.39,32.08,52.14Z" transform="translate(-22.49 -8.76)"/><path id="path7322" class="cls-8" d="M28.39,53.29a37.12,37.12,0,0,0,2.16,4,1.48,1.48,0,0,0,.08.13,9.25,9.25,0,0,0-3.57-.27,13,13,0,0,1,5.75,3.35,6,6,0,0,1-2.72,1.36,6,6,0,0,0,3-.26,7.38,7.38,0,0,0-1.82,3.54A7.56,7.56,0,0,1,34.21,62c1.41,4.66,3.1,9.72,5,15a1.45,1.45,0,0,0,.22-1.33c-.35-1-2.58-7.26-5.13-15.82-.07-.24-.14-.48-.22-.73a1.29,1.29,0,0,0-.06-.21c-.26-.9-.52-1.82-.79-2.77-.06-.22-.13-.42-.19-.65h0l-4.69-2.37Z" transform="translate(-22.49 -8.76)"/><path id="path7334" class="cls-9" d="M28.05,31.94c0,.15.05.29.08.45.09.46.17.93.27,1.41s.2,1,.31,1.58c.05.27.1.54.16.82.17.83.35,1.68.54,2.56.23,1.08.49,2.19.76,3.34s.53,2.23.82,3.39.57,2.23.88,3.4.57,2.1.87,3.19c0,.05,0,.1,0,.16.3,1.07.62,2.18.94,3.3,0,0,0,.06,0,.08l1.41-1.31-.11.06a13.58,13.58,0,0,0,3.44-7.62,18.39,18.39,0,0,0,0-4.25,28.56,28.56,0,0,0-.68-3.63c-.28-1.12-.62-2.31-1-3.57a7.18,7.18,0,0,1-1.08,1.56l-.25.27-.26.26h0a8.22,8.22,0,0,0,1-6.13,7.74,7.74,0,0,1-1.4,2.43c-.09.11-.2.22-.31.33l-.09.08h0a8.76,8.76,0,0,0,.91-2c0-.14.07-.28.1-.42s.09-.43.12-.64,0-.28,0-.42a6.85,6.85,0,0,0,0-1c0-.11,0-.21,0-.32s0-.3-.07-.44c-.12-.65-.24-1.23-.37-1.72-.06-.25-.12-.47-.18-.67l-.08-.24c-.07-.23-.13-.43-.2-.6a5.43,5.43,0,0,0-.26-.59h0a1.19,1.19,0,0,1-.1.28,9.16,9.16,0,0,1-1.59,2.28L34,26.41l-1.3,1.19,0,0-.19.2s0,0,0,0L28,31.86A.09.09,0,0,1,28.05,31.94Z" transform="translate(-22.49 -8.76)"/><path id="path7346" class="cls-10" d="M26.33,18.16c.05,1,.14,2.08.25,3.29a.58.58,0,0,0,0,.19c.1,1.06.23,2.2.39,3.45.14,1.07.3,2.21.5,3.43.15,1.06.35,2.17.55,3.35l4.45-4.08a7.32,7.32,0,0,0,1.12-4c0-.35,0-.72,0-1.09-.07-1.14-.21-2.35-.4-3.52A31.37,31.37,0,0,0,32.49,16,15,15,0,0,0,32,14.41c-.16-.4-.32-.76-.49-1.11A69.23,69.23,0,0,1,26.33,18.16Z" transform="translate(-22.49 -8.76)"/><path id="path7348" class="cls-3" d="M35.44,37.13l-.26.27h0A3.25,3.25,0,0,1,35.44,37.13Z" transform="translate(-22.49 -8.76)"/><path id="path7350" class="cls-4" d="M35.44,37.13l-.26.27h0A3.25,3.25,0,0,1,35.44,37.13Z" transform="translate(-22.49 -8.76)"/><path id="path7362" class="cls-11" d="M35.44,37.13l-.26.27h0A3.25,3.25,0,0,1,35.44,37.13Z" transform="translate(-22.49 -8.76)"/><path id="path7364" class="cls-3" d="M34.39,34.1a.3.3,0,0,1,.08-.08.6.6,0,0,0-.08.08Z" transform="translate(-22.49 -8.76)"/><path id="path7366" class="cls-4" d="M34.39,34.1a.3.3,0,0,1,.08-.08.6.6,0,0,0-.08.08Z" transform="translate(-22.49 -8.76)"/><path id="path7378" class="cls-12" d="M34.39,34.1a.3.3,0,0,1,.08-.08.6.6,0,0,0-.08.08Z" transform="translate(-22.49 -8.76)"/><path id="path7380" class="cls-3" d="M34.39,34.09Z" transform="translate(-22.49 -8.76)"/><path id="path7382" class="cls-4" d="M34.39,34.09Z" transform="translate(-22.49 -8.76)"/><path id="path7394" class="cls-13" d="M34.39,34.09Z" transform="translate(-22.49 -8.76)"/></g><g id="g4701"><path id="path4710" class="cls-14" d="M69.19,10.94a26.41,26.41,0,0,0-5.94,4.45l1.46,4.14a49,49,0,0,1,5.14-4.81l.2-.16c-.06.06-.13.1-.2.16A44.43,44.43,0,0,0,65,19.65a76.22,76.22,0,0,0,8,.17c1.42-4.24.17-6.45.17-6.45S71.68,9.91,69.19,10.94Z" transform="translate(-22.49 -8.76)"/><path id="path4712" class="cls-2" d="M62.53,32.3s0,0,0,0l-.3,0-.05,0Z" transform="translate(-22.49 -8.76)"/><path id="path4714" class="cls-2" d="M59.45,38.86a4.35,4.35,0,0,1-.52,0A4.35,4.35,0,0,0,59.45,38.86Z" transform="translate(-22.49 -8.76)"/><path id="path4716" class="cls-2" d="M43.09,52.2c0-.05.06-.11.1-.16L45,48.78c.67-1.17,1.34-2.32,2-3.43s1.37-2.3,2-3.38,1.37-2.24,2-3.29l1.6-2.49.53-.79,1-1.52.9-1.35.29-.43.05-.07h-.25l-.14-.42a1,1,0,0,1-.08.11c-.46.65-.92,1.32-1.37,2-.26.38-.52.78-.8,1.17-.73,1.09-1.44,2.17-2.15,3.29s-1.43,2.25-2.12,3.36-1.35,2.22-2,3.33-1.31,2.2-2,3.3-1.32,2.29-1.95,3.42c-.15.25-.29.51-.42.76-.52.92-1,1.81-1.5,2.7l.23.67h.28a.1.1,0,0,0,0-.07C41.86,54.45,42.48,53.31,43.09,52.2Z" transform="translate(-22.49 -8.76)"/><path id="path4718" class="cls-2" d="M58.8,38.87Z" transform="translate(-22.49 -8.76)"/><path id="path4720" class="cls-3" d="M57.63,42.13c-.28,0-.55,0-.82,0h0a2.91,2.91,0,0,0,.42,0A2.64,2.64,0,0,0,57.63,42.13Z" transform="translate(-22.49 -8.76)"/><path id="path4722" class="cls-4" d="M57.63,42.13c-.28,0-.55,0-.82,0h0a2.91,2.91,0,0,0,.42,0A2.64,2.64,0,0,0,57.63,42.13Z" transform="translate(-22.49 -8.76)"/><path id="path4724" class="cls-3" d="M58.81,38.88h.12a4.35,4.35,0,0,0,.52,0l-.64,0Z" transform="translate(-22.49 -8.76)"/><path id="path4726" class="cls-4" d="M58.81,38.88h.12a4.35,4.35,0,0,0,.52,0l-.64,0Z" transform="translate(-22.49 -8.76)"/><path id="path4737" class="cls-15" d="M57.26,28.55c.8-1.06,1.58-2.1,2.37-3.11s1.64-2.05,2.48-3l.14-.17c.82-.95,1.63-1.86,2.45-2.73l-1.47-4.12c-.17.17-.36.33-.55.5-.69.65-1.41,1.34-2.16,2.09s-1.7,1.73-2.6,2.67-1.66,1.79-2.5,2.73S54,25,53.26,25.89l-.08.09,1.87,5.61C55.8,30.57,56.53,29.55,57.26,28.55Z" transform="translate(-22.49 -8.76)"/><path id="path4748" class="cls-16" d="M40.91,56.21c-.49.9-1,1.83-1.48,2.79a.05.05,0,0,0,0,0,3.84,3.84,0,0,0-.21.4c-.34.64-.63,1.22-1.31,2.53a5.4,5.4,0,0,1,1.65,2.65,4.37,4.37,0,0,0-.95-3.14c3.81.74,7.27.25,9.38-2.31.18-.23.37-.48.54-.73-.93.86-1.94,1.15-3.75.77h0a10.42,10.42,0,0,0,5.82-3.48c.34-.41.69-.86,1.05-1.37a8.46,8.46,0,0,1-8.27,1.41l-2.17-.08C41.09,55.87,41,56,40.91,56.21Z" transform="translate(-22.49 -8.76)"/><path id="path4759" class="cls-17" d="M42.61,51.56c.63-1.12,1.29-2.26,2-3.41s1.28-2.2,1.95-3.31,1.34-2.22,2-3.32,1.4-2.25,2.12-3.37,1.43-2.2,2.15-3.29l.79-1.17c.45-.66.92-1.33,1.38-2l.07-.11L53.19,26c0,.06-.1.13-.16.19-.76.92-1.54,1.85-2.29,2.81s-1.52,2-2.26,3c-.63.85-1.25,1.71-1.86,2.59l-.37.53c-.74,1.09-1.44,2.17-2.07,3.2s-1.35,2.3-1.93,3.37c-.37.7-.73,1.38-1.06,2s-.53,1.13-.79,1.69c-.6,1.32-1.13,2.65-1.61,4L40.67,55c.49-.89,1-1.78,1.5-2.69Z" transform="translate(-22.49 -8.76)"/><path id="path4770" class="cls-18" d="M38.72,49.57a39.68,39.68,0,0,0-1.42,4.91,1.16,1.16,0,0,0,0,.18,10.83,10.83,0,0,0-2.66-3.07c1.25,2.55,2.13,5,2,7.28A6.92,6.92,0,0,1,33.3,57.8,6.64,6.64,0,0,0,35.91,60a8.38,8.38,0,0,0-4.28,1.41,8.58,8.58,0,0,1,4.86-.17c-2.58,4.87-5.23,10.28-7.93,16a1.6,1.6,0,0,0,1.23-.89c.48-1,3.69-7.89,8.44-16.81.14-.25.28-.5.41-.76l.12-.22c.5-.93,1-1.88,1.56-2.86.12-.22.24-.44.37-.66v0L38.8,49.39A1,1,0,0,0,38.72,49.57Z" transform="translate(-22.49 -8.76)"/><path id="path4781" class="cls-19" d="M55.41,32.1l-.29.43c-.3.45-.61.89-.9,1.35l-1,1.52-.53.79-1.6,2.49c-.67,1-1.34,2.15-2,3.29s-1.34,2.22-2,3.38-1.31,2.25-2,3.43L43.19,52c0,.05-.06.11-.1.16l-1.87,3.42a.21.21,0,0,0,0,.07l2.17.08-.13-.05a15.24,15.24,0,0,0,8.82-3.4,20.76,20.76,0,0,0,3.34-3.45,32.17,32.17,0,0,0,2.34-3.47c.67-1.12,1.34-2.35,2-3.69a7.84,7.84,0,0,1-2.1.39l-.41,0h-.42A9.33,9.33,0,0,0,62.48,38a8.47,8.47,0,0,1-3,.84,4.52,4.52,0,0,1-.52,0h-.14A10.19,10.19,0,0,0,61.09,38l.41-.25.61-.43.37-.3a5.6,5.6,0,0,0,.79-.82,1.49,1.49,0,0,0,.23-.28c.11-.14.21-.28.3-.41.43-.62.78-1.18,1.07-1.68.14-.25.27-.47.38-.69s.1-.16.14-.25.23-.45.31-.64a6.66,6.66,0,0,0,.26-.68h0a1.8,1.8,0,0,1-.31.14,10.29,10.29,0,0,1-3.09.58l2,.07-2-.07s0,0,0,0h-.26L55.44,32Q55.44,32.09,55.41,32.1Z" transform="translate(-22.49 -8.76)"/><path id="path4792" class="cls-20" d="M65,19.65c-.73.82-1.54,1.78-2.41,2.84a2.09,2.09,0,0,0-.14.17c-.76.93-1.56,2-2.42,3.09s-1.51,2-2.33,3.16c-.71,1-1.44,2-2.21,3.13l6.83.26a8.32,8.32,0,0,0,4.1-2.36c.27-.28.54-.6.82-.92a39,39,0,0,0,2.47-3.15,35.15,35.15,0,0,0,2-3.06c.35-.61.63-1.18.86-1.69s.34-.87.48-1.29A78.56,78.56,0,0,1,65,19.65Z" transform="translate(-22.49 -8.76)"/><path id="path4794" class="cls-3" d="M57.23,42.16h0Z" transform="translate(-22.49 -8.76)"/><path id="path4796" class="cls-4" d="M57.23,42.16h0Z" transform="translate(-22.49 -8.76)"/><path id="path4807" class="cls-21" d="M57.23,42.16h0Z" transform="translate(-22.49 -8.76)"/><path id="path4809" class="cls-3" d="M58.8,38.87h0Z" transform="translate(-22.49 -8.76)"/><path id="path4811" class="cls-4" d="M58.8,38.87h0Z" transform="translate(-22.49 -8.76)"/><path id="path4822" class="cls-22" d="M58.8,38.87h0Z" transform="translate(-22.49 -8.76)"/><path id="path4824" class="cls-3" d="M58.81,38.88Z" transform="translate(-22.49 -8.76)"/><path id="path4826" class="cls-4" d="M58.81,38.88Z" transform="translate(-22.49 -8.76)"/><path id="path4837" class="cls-23" d="M58.81,38.88Z" transform="translate(-22.49 -8.76)"/></g></g></svg>